<svg xmlns="http://www.w3.org/2000/svg" width="133" height="47" viewBox="0 0 133 47">
    <g fill="none" fill-rule="evenodd">
        <path fill="#FF8C00" d="M30.53 32.578c-.406 0-.744.145-.951.407-.533.672-.294 1.854.522 2.583.356.318.868.508 1.371.508.513 0 .94-.197 1.203-.553.475-.65.202-1.573-.694-2.349-.444-.384-.96-.596-1.452-.596m4.469-3.375c-.397-.118-.693-.03-.84.243-.22.414-.057 1.233.39 1.947.452.723.836 1.09 1.142 1.09.105 0 .2-.046.273-.131.17-.2.226-.619.154-1.148-.072-.541-.396-1.654-1.12-2m8.814 16.507c.411.52-.214 1.05-.68.627-4.65-4.215-8.56-5.41-12.43-5.575-2.052-.088-4.093.114-6.226.307a146.199 146.199 0 0 1-1.862.156c-.752.083-1.514.128-2.287.128-3.64 0-7.075-.913-10.21-2.714a19.642 19.642 0 0 1-7.431-7.5C.903 27.977 0 24.482 0 20.752c0-3.726.902-7.236 2.681-10.432 1.783-3.2 4.255-5.748 7.347-7.572C13.121.925 16.495 0 20.056 0c3.719 0 7.195.913 10.332 2.715 3.145 1.806 5.654 4.337 7.455 7.522 1.799 3.182 2.71 6.686 2.71 10.415 0 1.44-.136 2.846-.404 4.213-.034.199-.084.44-.154.72-.052.224-.108.447-.168.67l-.017-.01c-.36 1.18-1.03 2.851-2.28 4.996-.133.226-.208.054-.225-.072-.437-3.155-1.788-5.552-4.17-7.1l-.119-.074a10.3 10.3 0 0 0-1.252-.67 12.679 12.679 0 0 0-1.838-.658c-.404-.111-1.304-.064-.977-.395.134-.137 2.084-.168 4.326-.022l.13.008c.042-.48.064-.974.064-1.48 0-3.937-1.274-7.147-3.893-9.813C26.954 8.297 23.888 7 20.203 7c-3.773 0-6.833 1.299-9.353 3.97-2.534 2.685-3.765 5.869-3.765 9.732 0 3.855 1.266 7.025 3.871 9.69 2.605 2.666 5.63 3.963 9.247 3.963.174 0 .345-.006.516-.011l-.01-.134c-.208-2.718-.252-4.976.294-4.065.193.322.384.626.576.919.713 1.091 1.419 1.99 2.122 2.734l.106.11c2.571 2.672 5.102 3.329 7.793 4.005l.172.043c.44.11.885.223 1.336.346 3.198.874 6.661 2.282 10.703 7.41"/>
        <path fill="#0023A0" d="M56.344 12.804h4.032v6.508h1.66l3.41-6.508h4.331L65.33 20.87v.047l4.7 8.748h-4.515l-3.48-6.838h-1.659v6.838h-4.032zM80.032 22.826l-.921-3.278c-.3-1.06-.669-2.9-.669-2.9h-.046s-.369 1.84-.668 2.9l-.945 3.278h3.25zM76.3 12.804h4.24l5.599 16.86h-4.147l-1.014-3.537h-5.138l-.991 3.537h-4.147l5.598-16.86zM94.57 12.52c2.211 0 4.561.756 6.174 2.383l-1.866 3.112c-1.06-.943-2.65-1.721-4.125-1.721-3.294 0-4.654 2.382-4.654 4.81 0 2.5 1.475 5.07 4.654 5.07 1.636 0 3.25-.92 4.378-2.075l2.074 3.019c-1.452 1.533-3.618 2.83-6.636 2.83-5.3 0-8.64-3.75-8.64-8.75 0-4.904 3.548-8.677 8.64-8.677M110.629 12.52c2.212 0 4.562.756 6.175 2.383l-1.867 3.112c-1.06-.943-2.65-1.721-4.124-1.721-3.295 0-4.654 2.382-4.654 4.81 0 2.5 1.474 5.07 4.654 5.07 1.636 0 3.249-.92 4.378-2.075l2.073 3.019c-1.451 1.533-3.617 2.83-6.635 2.83-5.3 0-8.64-3.75-8.64-8.75 0-4.904 3.547-8.677 8.64-8.677M126.85 22.826l-.922-3.278c-.3-1.06-.669-2.9-.669-2.9h-.046s-.368 1.84-.668 2.9l-.944 3.278h3.248zm-3.733-10.022h4.24l5.598 16.86h-4.147l-1.014-3.537h-5.138l-.99 3.537h-4.148l5.599-16.86z"/>
    </g>
</svg>
